<?xml version="1.0" encoding="UTF-8" standalone="no"?>
<!-- Created with Inkscape (http://www.inkscape.org/) -->

<svg
   width="164.722mm"
   height="150mm"
   viewBox="0 0 164.722 150"
   version="1.1"
   id="svg1"
   xml:space="preserve"
   inkscape:version="1.3.1 (9b9bdc1480, 2023-11-25, custom)"
   sodipodi:docname="safari-pinned-tab.svg"
   xmlns:inkscape="http://www.inkscape.org/namespaces/inkscape"
   xmlns:sodipodi="http://sodipodi.sourceforge.net/DTD/sodipodi-0.dtd"
   xmlns="http://www.w3.org/2000/svg"
   xmlns:svg="http://www.w3.org/2000/svg"><sodipodi:namedview
     id="namedview1"
     pagecolor="#ffffff"
     bordercolor="#000000"
     borderopacity="0.25"
     inkscape:showpageshadow="2"
     inkscape:pageopacity="0.0"
     inkscape:pagecheckerboard="0"
     inkscape:deskcolor="#d1d1d1"
     inkscape:document-units="mm"
     inkscape:zoom="0.7198092"
     inkscape:cx="397.32751"
     inkscape:cy="450.11928"
     inkscape:window-width="1854"
     inkscape:window-height="1011"
     inkscape:window-x="0"
     inkscape:window-y="0"
     inkscape:window-maximized="1"
     inkscape:current-layer="layer1" /><defs
     id="defs1" /><g
     inkscape:label="Layer 1"
     inkscape:groupmode="layer"
     id="layer1"><path
       style="fill:#000000"
       d="m 79.045239,130.93632 c -3.453532,-0.27088 -7.755282,-0.92807 -10.358672,-1.58253 -8.154426,-2.04993 -16.457483,-6.29891 -22.944222,-11.74139 -3.113565,-2.61234 -3.069621,-2.54926 -2.271378,-3.26027 l 0.658666,-0.58669 1.240002,1.13905 c 6.057223,5.5641 14.158913,10.0165 22.475562,12.35177 7.06909,1.98497 15.721172,2.57362 23.214436,1.57941 13.436847,-1.78279 26.005637,-8.89975 35.276867,-19.97519 6.22681,-7.43858 10.7691,-17.488011 12.19818,-26.987501 0.24082,-1.60073 0.5219,-2.88065 0.62463,-2.84427 0.10273,0.0364 0.49613,0.0661 0.87422,0.0661 0.68657,0 0.6872,0.002 0.50275,1.65364 -0.87589,7.84238 -4.416,17.29156 -9.10927,24.314241 -3.60588,5.39558 -7.61514,9.6138 -13.51217,14.21644 -10.43761,8.14656 -25.610847,12.69707 -38.869601,11.65714 z m -3.728312,-5.49025 c -6.77227,-1.77016 -9.56897,-8.51793 -6.33705,-15.2898 1.99618,-4.18262 6.09374,-6.9767 10.884372,-7.42195 l 1.80268,-0.16754 0.003,-1.21878 c 0.0108,-4.188691 2.7961,-8.413691 7.140594,-10.831471 4.7095,-2.62092 11.200007,-4.00398 22.617597,-4.81959 l 3.96448,-0.2832 1.32719,-1.01704 c 0.72996,-0.55937 1.82242,-1.1633 2.4277,-1.34206 2.01826,-0.59606 3.3045,0.25999 2.13797,1.42292 -0.54329,0.54162 -1.74814,0.90625 -4.4668,1.35182 -0.83398,0.13668 -1.13969,0.41533 -2.27054,2.06952 -1.45926,2.13459 -2.94155,4.7269 -6.16123,10.77511 -3.82182,7.179371 -6.71739,11.883631 -9.571289,15.549911 l -1.29161,1.65928 0.53806,1.74203 c 0.56003,1.81316 0.74676,3.43486 0.27034,2.34775 -0.12755,-0.29104 -0.42283,-1.2219 -0.65619,-2.06857 l -0.42428,-1.5394 -2.33122,2.21846 c -4.364338,4.15323 -8.390248,6.29994 -13.253922,7.0673 -2.41225,0.38059 -4.34977,0.31813 -6.350002,-0.2047 z m 7.276592,-0.57844 c 2.44417,-0.62511 5.393544,-2.1553 7.715454,-4.0029 1.77448,-1.41199 6.174618,-5.98158 6.174618,-6.41239 0,-0.45296 -1.82653,-3.59635 -2.969018,-5.10956 -2.10588,-2.78922 -5.44724,-4.99707 -8.736064,-5.77249 -2.66186,-0.6276 -2.66103,-0.62794 -2.4568,0.99071 0.17739,1.40584 0.74263,3.91357 1.07348,4.7625 0.10312,0.26462 0.0593,0.46302 -0.1022,0.46302 -0.35864,0 -1.02742,-2.214 -1.41863,-4.69635 -0.2859,-1.8142 -0.33976,-1.91823 -0.99302,-1.91823 -2.50321,0 -6.223602,1.76985 -8.302982,3.94986 -3.39178,3.55593 -4.64052,8.60309 -3.17956,12.85118 0.69613,2.02418 2.96628,4.16665 5.14614,4.8567 2.261402,0.71587 5.341152,0.73039 8.048582,0.0379 z m 17.702141,-15.69818 c 1.64915,-2.49827 4.69451,-7.45935 6.76747,-11.024611 3.56786,-6.13633 6.02398,-9.97897 7.22895,-11.30988 0.29593,-0.32685 0.48796,-0.63766 0.42676,-0.69069 -0.16668,-0.14441 -9.23065,0.8049 -12.41441,1.30021 -11.885737,1.84912 -18.287341,5.98676 -19.719581,12.745641 -0.20876,0.98515 -0.38163,1.92806 -0.38415,2.09535 -0.003,0.16731 0.91814,0.5089 2.04592,0.75911 5.015264,1.1127 9.007524,4.27881 11.593512,9.19439 0.51822,0.98505 1.05806,1.7194 1.19965,1.63189 0.14158,-0.0875 1.60673,-2.20314 3.255879,-4.70141 z m 20.30468,-24.671151 c 0.83506,-0.43182 0.88847,-0.97762 0.11043,-1.12845 -0.92578,-0.17948 -2.17605,0.24181 -3.07275,1.03537 l -0.9138,0.8087 1.54414,-0.1541 c 0.84928,-0.0848 1.89867,-0.33744 2.33198,-0.56152 z M 29.991809,110.60393 c -0.699597,-0.28228 -1.656421,-0.80646 -2.126277,-1.16484 -1.089996,-0.83138 -2.453589,-2.78158 -2.134749,-3.05311 0.132744,-0.11304 1.110028,-0.42224 2.171742,-0.6871 2.708286,-0.67562 4.51517,-0.46667 7.19317,0.83185 1.166678,0.5657 2.121232,0.99621 2.121232,0.95668 0,-0.0395 -0.400434,-0.69925 -0.889854,-1.46606 -0.489419,-0.76681 -1.200297,-2.00842 -1.579727,-2.75913 -0.683106,-1.35155 -0.700108,-1.36357 -1.733218,-1.225 -1.540527,0.20663 -3.786604,-0.59575 -5.233937,-1.86974 -1.195035,-1.051911 -2.362757,-3.037391 -1.99357,-3.389671 0.22436,-0.21408 4.574614,0.69021 5.371163,1.11651 0.566277,0.30306 0.566277,0.30306 -0.03414,-0.76525 -0.858287,-1.52711 -2.783907,-3.92137 -3.565932,-4.43378 -1.585817,-1.03906 -4.231407,-0.60462 -4.231407,0.69487 0,0.83265 0.761147,0.88321 0.878298,0.0583 0.0465,-0.32742 0.254861,-0.59531 0.463021,-0.59531 0.565317,0 0.462585,1.16478 -0.151769,1.72076 -0.44033,0.3985 -0.643479,0.42827 -1.19805,0.17559 -1.979368,-0.90186 -0.448692,-3.48037 2.067519,-3.48285 0.550377,-5.5e-4 1.383815,0.16054 1.852083,0.35797 0.825981,0.34825 2.777654,2.26476 3.676017,3.60978 0.323978,0.48506 0.242098,-0.0442 -0.307028,-1.98438 -0.411855,-1.4552 -0.941766,-3.33043 -1.17758,-4.16717 -0.332566,-1.18006 -0.543579,-1.52136 -0.940602,-1.52136 -0.281517,0 -1.164886,-0.24433 -1.963041,-0.54296 -2.527262,-0.94557 -4.91866,-4.17771 -4.91866,-6.64792 0,-0.45352 0.141417,-0.74662 0.360234,-0.74662 0.554601,0 4.176413,2.0594 5.029001,2.85954 l 0.759027,0.71234 -0.190516,-0.66146 c -0.535529,-1.85932 -2.067223,-4.55334 -2.865589,-5.04014 -0.881603,-0.53755 -2.184845,-0.70994 -1.901532,-0.25153 0.08994,0.14552 0.39462,0.26459 0.677074,0.26459 0.546413,0 0.690874,0.38834 0.2466,0.66292 -0.429347,0.26535 -1.296455,-0.12353 -1.618912,-0.72604 -0.24312,-0.45428 -0.209492,-0.62102 0.183142,-0.90813 0.646701,-0.47287 1.981346,-0.44469 2.697573,0.057 0.874074,0.61222 2.123241,2.55546 2.840058,4.41807 0.350429,0.91056 0.642962,1.48673 0.650075,1.28037 0.03319,-0.96278 -0.63499,-3.9586 -1.079442,-4.83978 -0.557072,-1.10446 -0.620313,-1.53189 -0.226654,-1.53189 0.447184,0 1.289687,1.62458 1.574466,3.03601 0.147549,0.73128 0.450771,2.93695 0.673825,4.90149 0.229015,2.01702 0.797959,5.01155 1.307005,6.87916 1.2518,4.59266 1.437016,5.01515 1.275927,2.91041 -0.164663,-2.15143 0.245391,-3.70983 1.288848,-4.89826 0.90323,-1.02872 1.944412,-1.2315 2.199324,-0.42834 0.322519,1.01616 -0.881592,2.81997 -1.481788,2.21977 -0.196716,-0.19672 -0.1148,-0.44486 0.275796,-0.83545 0.580443,-0.58045 0.726691,-1.08479 0.314562,-1.08479 -0.542618,0 -1.588893,1.65616 -1.757786,2.78242 -0.182033,1.21387 0.02167,4.00473 0.389924,5.34213 l 0.203475,0.73898 0.188314,-0.83137 c 0.103573,-0.45725 0.533135,-1.37509 0.954583,-2.03964 0.801052,-1.26313 2.875983,-2.9765 3.178505,-2.62465 0.249602,0.2903 -0.183417,5.80095 -0.563751,7.17436 -0.175086,0.63225 -0.716426,1.571641 -1.202977,2.087531 -0.486552,0.5159 -0.88464,0.98584 -0.88464,1.04432 0,0.0585 0.520307,0.99518 1.156238,2.08154 l 1.156238,1.9752 0.1778,-1.65552 c 0.281321,-2.61942 0.862039,-4.03094 2.310336,-5.615601 1.432556,-1.56745 3.620677,-2.7868 5.000894,-2.7868 0.696301,0 0.805434,0.0785 0.643737,0.46302 -0.107088,0.25466 -0.418065,1.75714 -0.69106,3.338831 -0.753066,4.36317 -2.404327,6.97752 -4.972583,7.87281 -0.956973,0.33361 -0.98539,0.47005 -0.283683,1.36213 0.291041,0.37 0.529166,0.74324 0.529166,0.82943 0,0.33688 -0.655337,0.13042 -1.194852,-0.37643 l -0.5675,-0.53314 -1.622582,0.83683 c -2.115736,1.09117 -4.816087,1.29825 -6.750601,0.51769 z m 5.820278,-0.92239 0.743382,-0.403 -1.455208,-0.0169 c -1.419299,-0.0165 -3.343013,-0.34868 -3.619331,-0.625 -0.429353,-0.42935 0.316567,-0.60063 1.682743,-0.38639 0.835814,0.13107 2.000423,0.19979 2.58802,0.15272 l 1.068359,-0.0856 -2.099923,-1.03806 c -2.517431,-1.24444 -4.355044,-1.47321 -6.597468,-0.82132 l -1.493111,0.43406 0.577715,0.7814 c 0.693691,0.93827 2.214864,1.98207 3.433113,2.35574 1.180959,0.36223 4.241777,0.15647 5.171709,-0.34766 z m 5.839142,-3.95011 c 0.677703,-0.65373 1.331522,-1.63374 1.639995,-2.45821 0.534488,-1.42856 1.259662,-5.820111 1.003388,-6.076391 -0.22513,-0.22513 -2.185593,0.8504 -3.243983,1.77968 -1.706246,1.498101 -2.775368,4.164681 -2.775368,6.922251 0,0.68149 0.0521,0.73432 0.421686,0.42759 0.231928,-0.19249 0.894106,-1.30839 1.471508,-2.4798 1.12497,-2.28229 1.43573,-2.72556 1.714995,-2.44629 0.228291,0.22829 -1.344105,3.67719 -2.355181,5.16586 l -0.777816,1.14523 0.886883,-0.44639 c 0.487786,-0.24552 1.394038,-0.93561 2.013893,-1.53353 z m -10.505558,-5.28904 c -0.938097,-0.463291 -1.751691,-0.991171 -1.807986,-1.173071 -0.151695,-0.49015 0.31642,-0.40651 1.840984,0.32897 0.752114,0.36283 1.4125,0.614671 1.467524,0.559651 0.05503,-0.055 -0.345372,-0.467191 -0.88977,-0.915931 -0.636799,-0.52491 -1.514513,-0.91973 -2.461009,-1.10704 -0.809157,-0.16013 -1.679555,-0.35051 -1.934216,-0.42305 -0.69625,-0.19834 -0.559848,0.30423 0.370005,1.36328 1.153461,1.313711 2.930687,2.192371 4.458641,2.204341 0.481636,0.004 0.197771,-0.22381 -1.044173,-0.83715 z m 5.181204,-1.183111 c 0.207011,-0.47847 0.451222,-2.00926 0.542692,-3.40177 0.162519,-2.47412 0.1544,-2.52438 -0.356288,-2.20545 -1.653087,1.03237 -2.90445,4.53968 -2.216571,6.21258 0.212713,0.517311 0.22222,0.517751 0.424362,0.0198 0.113726,-0.28014 0.337959,-1.16422 0.498296,-1.96462 0.420166,-2.09746 1.072395,-2.20886 0.81581,-0.13934 -0.106033,0.85524 -0.359209,1.97169 -0.562613,2.481011 -0.343653,0.86051 -0.339828,0.8886 0.05405,0.39688 0.233132,-0.29105 0.593249,-0.920641 0.800259,-1.399111 z m -8.381937,-12.90233 c -0.187522,-0.22595 -1.035538,-0.89804 -1.88448,-1.49354 -0.848942,-0.5955 -1.543531,-1.16469 -1.543531,-1.26488 0,-0.57158 0.52181,-0.39782 2.023662,0.67388 0.924278,0.65955 1.680505,1.09087 1.680505,0.95848 0,-0.13238 -0.470923,-0.7757 -1.046496,-1.42958 -1.121128,-1.27367 -4.77638,-3.42055 -4.771753,-2.80265 0.0054,0.72696 1.294811,3.02831 2.154071,3.84473 1.394576,1.32504 4.313954,2.62924 3.388022,1.51356 z m 45.043659,-0.43584 c -0.42489,-0.42489 -0.4021,-1.87828 0.0463,-2.95139 0.4683,-1.1208 1.88891,-2.73646 2.83736,-3.22692 0.856912,-0.44313 1.693472,-0.51314 0.899902,-0.0753 -1.498192,0.82658 -3.055332,2.83826 -3.531312,4.56213 -0.31324,1.13445 -0.18448,1.66424 0.44499,1.83095 0.36226,0.0959 0.36766,0.12211 0.0304,0.14735 -0.22556,0.0169 -0.55298,-0.11218 -0.72761,-0.2868 z m 2.40223,-0.22225 c -0.13629,-0.52117 -0.16048,-0.52351 -0.70284,-0.068 l -0.56168,0.47171 0.56687,-0.65957 c 0.89164,-1.03742 3.269582,-4.79252 3.269582,-5.16312 0,-0.33872 0.77008,-0.76769 0.98763,-0.55014 0.065,0.065 -0.35204,0.81191 -0.92668,1.65987 -1.942912,2.86703 -2.545482,4.39192 -1.846882,4.67381 0.188682,0.0761 0.121222,0.14242 -0.15706,0.15434 -0.27945,0.012 -0.54808,-0.20965 -0.62894,-0.51886 z m 2.298042,0.028 c 0.43446,-0.81179 0.32221,-0.94376 -0.33535,-0.39424 -0.33509,0.28003 -0.1611,0.0627 0.38663,-0.48305 0.54773,-0.5457 0.9412,-0.99218 0.87438,-0.99218 -0.0668,0 0.41077,-0.74414 1.06133,-1.65365 0.65056,-0.90951 1.35262,-1.89177 1.56014,-2.18281 0.20752,-0.29104 0.47074,-0.43789 0.58492,-0.32632 0.11419,0.11156 0.0667,0.34374 -0.10548,0.51594 -0.64094,0.64093 -0.286,0.80451 0.40626,0.18723 0.39565,-0.35279 0.0682,0.0825 -0.7276,0.96738 -0.79583,0.88484 -1.86368,2.34207 -2.373,3.23828 -0.50932,0.8962 -1.07906,1.63075 -1.26608,1.63233 -0.25429,0.002 -0.27097,-0.12619 -0.0662,-0.50891 z m 3.96524,0.0995 c -0.41326,-0.49795 0.13998,-1.68639 2.00781,-4.31309 1.00895,-1.41886 1.14342,-1.74713 0.85756,-2.09355 -0.28177,-0.34148 -0.272,-0.38896 0.0579,-0.28126 0.88976,0.2905 0.57698,1.43314 -1.04465,3.81639 -0.88065,1.29426 -1.60118,2.49432 -1.60118,2.66682 0,0.1725 0.20836,0.36808 0.46302,0.43463 0.39065,0.10209 0.39571,0.1258 0.0324,0.15169 -0.23685,0.0169 -0.58462,-0.15485 -0.77283,-0.38163 z m 3.96531,-0.14723 c -0.1647,-0.30775 -0.24881,-0.90466 -0.1869,-1.32647 l 0.11256,-0.76693 -0.6823,0.59791 -0.6823,0.59791 0.68198,-0.79278 c 0.3751,-0.43604 1.124748,-1.41157 1.665894,-2.16785 0.95784,-1.33861 2.3731,-2.4614 3.10258,-2.4614 0.1985,0 -0.0782,0.29842 -0.615,0.66315 -1.49349,1.01485 -3.115664,3.64214 -3.115664,5.04614 0,0.99057 0.707124,1.08728 1.611894,0.22046 0.84352,-0.80815 3.1506,-4.35324 3.1506,-4.84126 0,-0.16211 0.10324,-0.29474 0.22942,-0.29474 0.12619,0 0.56083,-0.50602 0.96588,-1.12448 1.19589,-1.82598 2.662188,-3.47123 3.560678,-3.99525 0.75131,-0.43818 0.7161,-0.36628 -0.3357,0.68552 -1.14857,1.14858 -3.346268,4.26476 -5.297508,7.51153 -1.07129,1.78257 -1.29344,2.92142 -0.51183,2.62385 0.35743,-0.13608 0.39166,-0.10435 0.15007,0.13912 -0.45086,0.45439 -1.14226,0.0974 -1.14226,-0.58982 0,-0.57677 -0.0129,-0.57462 -0.74208,0.12399 -0.89316,0.8557 -1.516766,0.90487 -1.920014,0.1514 z m -2.62957,0.19508 c 0,-0.0549 0.20836,-0.2633 0.46302,-0.46302 0.41965,-0.32911 0.429,-0.31975 0.0999,0.0999 -0.34565,0.44073 -0.56292,0.58089 -0.56292,0.36313 z m 7.276034,-0.69386 c 0.26339,-0.29104 0.53842,-0.52916 0.61118,-0.52916 0.0728,0 -0.0832,0.23812 -0.34659,0.52916 -0.26339,0.29104 -0.53842,0.52917 -0.61118,0.52917 -0.0728,0 0.0832,-0.23813 0.34659,-0.52917 z m 1.05834,-1.32291 c 0.26339,-0.29105 0.53842,-0.52917 0.61118,-0.52917 0.0728,0 -0.0832,0.23812 -0.3466,0.52917 -0.26339,0.29104 -0.53842,0.52916 -0.61118,0.52916 -0.0728,0 0.0832,-0.23812 0.3466,-0.52916 z m -43.753689,-7.69345 c -3.660465,-0.71938 -5.641002,-3.0888 -4.833816,-5.78295 0.933596,-3.11606 5.470097,-4.97164 10.57828,-4.32687 1.917064,0.24197 5.138244,1.12589 7.477519,2.05188 0.324974,0.12864 1.126719,-0.87454 3.41839,-4.27726 1.64662,-2.44492 3.33081,-4.87916 3.74264,-5.40943 1.12371,-1.44684 0.91646,-1.44366 -0.83365,0.0128 -1.91753,1.59578 -4.043344,2.86559 -6.500542,3.88296 -1.687044,0.6985 -2.111975,0.76183 -5.146177,0.76695 -2.891399,0.005 -3.440378,-0.0662 -4.365625,-0.56551 -2.097901,-1.13203 -3.307292,-3.02829 -3.307292,-5.18566 0,-2.65192 1.455977,-6.35817 3.600932,-9.16633 0.711623,-0.93166 1.450537,-1.90387 1.64203,-2.16048 0.307529,-0.4121 0.179038,-0.63131 -1.100758,-1.87796 -1.803603,-1.75689 -2.244572,-3.05788 -1.76413,-5.20472 0.602043,-2.690214 3.07093,-4.260834 6.19142,-3.938774 1.469471,0.15166 4.130506,1.31482 4.130506,1.80547 0,0.1552 -0.0893,0.23678 -0.198437,0.1813 -2.584409,-1.31386 -3.429387,-1.59863 -4.709355,-1.58713 -2.454029,0.0221 -4.260336,1.31743 -4.923489,3.530834 -0.580393,1.93718 0.429149,4.37094 2.290208,5.52114 l 0.916126,0.56619 2.187994,-1.89832 c 7.318286,-6.349404 17.256189,-10.790344 24.315661,-10.865914 2.40976,-0.0258 3.30305,0.38418 3.74843,1.72035 1.66032,4.980934 -17.183822,13.498714 -27.196761,12.293264 -2.137073,-0.25728 -2.056808,-0.30566 -4.450132,2.68262 -2.289937,2.85919 -3.418502,5.3659 -3.56645,7.9216 -0.193919,3.34984 0.932731,4.89385 4.177586,5.72514 1.346226,0.34489 2.012944,0.37083 3.698864,0.14394 4.591398,-0.6179 7.758981,-2.49126 14.121741,-8.35181 4.5447,-4.18599 5.760552,-5.11984 8.001872,-6.14595 1.97869,-0.90588 2.13614,-0.58483 0.1999,0.40761 -2.00375,1.02704 -4.011412,2.70956 -6.105232,5.11646 -1.55741,1.79029 -10.558689,14.95963 -10.351993,15.14551 0.307801,0.2768 3.625813,1.80464 5.648673,2.60104 3.51104,1.3823 6.02332,1.85993 9.078032,1.72589 3.05658,-0.13413 4.72223,-0.84226 6.2187,-2.64381 0.51696,-0.62235 1.01944,-1.05203 1.11662,-0.95485 0.0972,0.0972 -0.37546,0.76699 -1.05031,1.48846 -1.6586,1.77318 -3.35301,2.48574 -6.26751,2.63572 -3.768292,0.1939 -6.993932,-0.65808 -12.942052,-3.41835 l -2.259027,-1.04832 -2.390505,2.3611 c -1.840303,1.81767 -2.842784,2.57711 -4.355558,3.29958 -2.854111,1.36308 -5.265531,1.73705 -7.883323,1.22259 z m 5.071383,-0.77605 c 2.107902,-0.65106 4.267174,-2.19999 6.471205,-4.64203 0.908447,-1.00655 1.651723,-1.90658 1.651723,-2.00006 0,-0.0935 -1.330445,-0.61194 -2.956545,-1.15211 -6.501848,-2.15984 -12.202454,-1.31221 -14.180297,2.10849 -2.305626,3.98761 3.222405,7.47453 9.013914,5.68571 z m 12.87184,-30.32417 c 11.041592,-2.47642 20.655956,-8.826464 17.755432,-11.726994 -2.43207,-2.43207 -13.630362,1.59597 -22.636636,8.142444 -2.660658,1.93397 -4.894465,3.78787 -4.894662,4.06221 -4.94e-4,0.68841 5.85165,0.40247 9.775866,-0.47766 z m 72.295933,23.83428 c -0.41836,-0.86111 -0.76646,-2.60221 -1.22988,-6.15156 -0.41659,-3.19063 -0.98995,-6.17327 -1.61287,-8.39009 -0.53157,-1.89177 -1.02735,-3.49912 -1.10172,-3.57188 -0.0744,-0.0728 -0.0521,0.48487 0.0494,1.23919 0.40066,2.9764 -1.09405,6.30836 -2.74397,6.11676 -0.52065,-0.0605 -0.70774,-0.24927 -0.76878,-0.77587 -0.10463,-0.90278 1.07906,-2.36727 1.54393,-1.91018 0.23555,0.23161 0.17676,0.43696 -0.24618,0.85989 -0.58277,0.58278 -0.72634,1.08479 -0.31024,1.08479 0.43536,0 1.33207,-1.36144 1.63472,-2.48193 0.27567,-1.02063 0.19284,-3.21979 -0.20446,-5.42855 l -0.16172,-0.89904 -0.47224,1.24409 c -0.25974,0.68425 -0.88447,1.74366 -1.3883,2.35424 -0.95318,1.15515 -2.44257,2.1931 -2.64309,1.84196 -0.0636,-0.11145 -0.0128,-1.68197 0.11287,-3.49004 0.24488,-3.52171 0.69285,-4.92353 1.95116,-6.10565 l 0.65714,-0.61734 -0.95796,-1.74168 c -1.45741,-2.64974 -1.59526,-2.71813 -1.65222,-0.81969 -0.0657,2.18878 -0.91935,4.34217 -2.31131,5.83029 -1.22309,1.30758 -3.43403,2.56657 -4.73185,2.69449 -0.66514,0.0656 -0.78022,-0.008 -0.71028,-0.45094 0.91186,-5.78115 1.38093,-7.42748 2.55728,-8.97549 0.67323,-0.88593 2.42729,-2.12647 3.70925,-2.62333 0.14553,-0.0564 -0.003,-0.39444 -0.33072,-0.751204 -0.32743,-0.35677 -0.59532,-0.78982 -0.59532,-0.96234 0,-0.54679 0.76513,-0.33875 1.20106,0.32657 l 0.41951,0.64026 1.25246,-0.77858 c 2.61192,-1.62366 5.80878,-1.61708 8.66809,0.0178 1.34119,0.76688 3.24361,3.097904 2.81554,3.449864 -0.1108,0.0911 -1.06371,0.38068 -2.1176,0.64351 -2.70439,0.67445 -4.50146,0.49015 -7.05774,-0.72382 -2.2609,-1.0737 -2.46339,-1.13714 -2.06883,-0.64815 0.14678,0.1819 0.87483,1.39571 1.61788,2.69736 l 1.35101,2.36662 1.65567,0.0427 c 2.05063,0.0529 3.79498,0.83108 5.09929,2.2748 1.48731,1.64627 1.96844,3.34697 0.85585,3.02525 -0.32742,-0.0947 -1.30969,-0.30259 -2.18281,-0.46204 -0.87313,-0.15945 -1.91492,-0.45612 -2.31511,-0.65926 -0.40018,-0.20315 -0.7276,-0.30106 -0.7276,-0.21757 0,0.0835 0.40078,0.77116 0.89061,1.52815 2.21377,3.42115 3.43073,4.41906 5.38912,4.41906 1.18005,0 2.18694,-0.66999 2.18694,-1.45521 0,-0.22048 -0.23519,-0.39687 -0.52917,-0.39687 -0.35278,0 -0.52917,0.17639 -0.52917,0.52917 0,0.29398 -0.17639,0.52916 -0.39687,0.52916 -0.26531,0 -0.39688,-0.26531 -0.39688,-0.8003 0,-1.05831 1.0674,-1.54465 2.02009,-0.92042 1.63783,1.07314 -0.04,3.31646 -2.46997,3.30241 -1.74899,-0.0101 -3.11743,-0.84611 -4.4956,-2.74643 -0.68755,-0.94804 -1.27709,-1.69672 -1.31008,-1.66372 -0.033,0.033 0.4484,1.83437 1.06977,4.00304 l 1.12977,3.94305 1.58693,0.4344 c 1.81744,0.4975 2.85752,1.16637 4.13573,2.65967 1.33756,1.56263 2.2216,4.59733 1.42798,4.90187 -0.38494,0.14771 -3.98093,-1.74752 -4.83146,-2.54637 -0.8542,-0.8023 -0.9466,-0.61768 -0.40468,0.80853 0.688,1.81066 1.76736,3.59876 2.46898,4.0902 0.65486,0.45868 1.78921,0.55028 1.78921,0.14449 0,-0.14552 -0.24805,-0.26459 -0.55122,-0.26459 -0.32717,0 -0.50351,-0.13442 -0.43385,-0.33073 0.15971,-0.45007 1.30718,-0.28828 1.70242,0.24004 0.56453,0.75459 -0.0421,1.41361 -1.30118,1.41361 -0.94617,0 -1.24383,-0.15598 -2.19798,-1.15178 -0.65895,-0.68772 -1.4368,-1.94032 -1.93057,-3.10886 -0.45484,-1.07639 -0.82871,-1.71894 -0.83083,-1.4279 -0.007,1.00124 0.76923,4.17641 1.17156,4.79043 0.49369,0.75348 0.51437,1.16269 0.0587,1.16269 -0.18929,0 -0.60674,-0.54047 -0.92767,-1.20105 z m 5.60535,-4.28905 c -0.57387,-2.39334 -2.60813,-4.46615 -5.12728,-5.22444 l -0.66146,-0.1991 0.6462,0.69939 c 0.35541,0.38467 1.21861,1.06671 1.91823,1.51566 1.24817,0.80095 1.4913,1.12351 1.05165,1.39524 -0.23337,0.14422 -1.88985,-0.87444 -2.88847,-1.77627 -1.03705,-0.93653 -0.64286,-0.0263 0.57542,1.3287 0.98708,1.09787 3.7669,2.95747 4.4567,2.98137 0.11191,0.004 0.12497,-0.32037 0.029,-0.72055 z m -12.38688,-14.12819 c 0.57765,-1.10549 0.89344,-2.91958 0.6838,-3.92817 -0.24918,-1.19883 -0.57702,-0.71159 -0.96559,1.43507 -0.15618,0.86284 -0.42826,1.6169 -0.60462,1.67569 -0.43534,0.14511 -0.41241,-1.05566 0.0545,-2.85576 0.20635,-0.7955 0.33904,-1.4825 0.29487,-1.52668 -0.0442,-0.0442 -0.34938,0.47551 -0.67825,1.15485 -0.44974,0.92905 -0.62919,1.86686 -0.72407,3.78412 l -0.12615,2.54897 0.8497,-0.79375 c 0.46734,-0.43657 1.01444,-1.10902 1.21578,-1.49434 z m -7.65459,-2.33204 c 1.707,-0.97904 3.13985,-2.63584 3.64484,-4.2145 0.47967,-1.49951 0.6474,-3.81854 0.28914,-3.99766 -0.14552,-0.0728 -0.83486,0.96903 -1.53187,2.3151 -0.76763,1.48244 -1.42832,2.4474 -1.6757,2.4474 -0.22462,0 -0.36468,-0.0893 -0.31124,-0.19844 0.0534,-0.10914 0.53092,-1.09141 1.06107,-2.18281 0.53014,-1.09141 1.22241,-2.37133 1.53836,-2.84427 0.70842,-1.0604 0.41296,-1.08824 -1.05881,-0.0998 -1.32125,0.88736 -2.53165,2.57525 -2.94707,4.10965 -0.55582,2.05295 -0.96369,5.44918 -0.65411,5.44651 0.15824,-10e-4 0.89866,-0.3529 1.64539,-0.78119 z m 15.70794,-0.017 c 0,-0.14935 -0.52476,-0.79631 -1.16614,-1.43769 -0.81011,-0.81011 -1.59218,-1.29266 -2.56157,-1.58054 -2.21122,-0.65666 -2.37187,-0.46354 -0.43948,0.52831 0.98227,0.50417 1.78594,1.0341 1.78594,1.17761 0,0.32748 -0.86706,0.34253 -1.20385,0.0209 -0.13825,-0.13203 -0.72528,-0.43507 -1.30452,-0.67344 l -1.05316,-0.43339 0.78122,0.81542 c 0.71684,0.74822 2.20633,1.35511 4.10323,1.67185 0.3638,0.0607 0.75075,0.12666 0.85989,0.14648 0.10914,0.0198 0.19844,-0.0862 0.19844,-0.23551 z m -1.23776,-8.61687 c 0.68077,-0.23196 1.23776,-0.5195 1.23776,-0.63897 0,-0.5064 -2.52916,-2.385474 -3.76182,-2.794894 -1.6231,-0.53911 -3.93852,-0.39778 -5.25726,0.3209 l -0.9028,0.492 2.55889,0.13229 c 2.53949,0.13129 3.05699,0.269174 2.76761,0.737404 -0.091,0.14732 -0.75049,0.14934 -1.67012,0.005 -0.83581,-0.13107 -2.00042,-0.20293 -2.58802,-0.15969 l -1.06836,0.0786 0.72402,0.4911 c 2.41069,1.63517 5.54058,2.16052 7.9601,1.33611 z M 26.038281,66.982039 c -0.870682,-0.11149 -0.883643,-0.26283 -0.322195,-3.76218 2.862936,-17.84393 14.662911,-33.783434 30.947717,-41.804434 8.915454,-4.39126 15.583664,-6.06563 25.003126,-6.27821 7.821794,-0.17652 12.855182,0.52693 19.579161,2.73634 7.52647,2.47308 14.62641,6.61016 20.71817,12.07229 l 1.27129,1.1399 -0.64913,0.60983 -0.64914,0.60983 -2.57403,-2.16418 c -7.93566,-6.67213 -17.25246,-10.95428 -27.665427,-12.71545 -2.95549,-0.49988 -4.49938,-0.59792 -9.237144,-0.58662 -4.91042,0.0117 -6.22549,0.10793 -9.613972,0.70344 -18.707891,3.28779 -34.884505,16.54474 -42.083172,34.487714 -1.895192,4.72385 -3.599273,11.35868 -3.600413,14.0182 -4.13e-4,0.96471 -0.118168,1.06243 -1.124841,0.93353 z"
       id="path1" /></g></svg>
